<svg id="Layer_1" data-name="Layer 1" xmlns="http://www.w3.org/2000/svg" viewBox="0 0 889.414 350.898"><defs><style>.cls-1{fill:#206444;}</style></defs><path class="cls-1" d="M280.8,595.417s2.886,41.845-7.5,62.623c0,0-10.966-28.858-8.369-62.623,0,0-42.775,25.958-33.379,76.475,7.407,39.824,41.94,60.025,41.94,60.025s40.308-24.837,42.23-68.25C317.741,618.023,280.8,595.417,280.8,595.417Z" transform="translate(-94.443 -381.019)"/><path class="cls-1" d="M240.784,583.634s-31.239,27.989-54.016,32.561c0,0,16.029-26.385,44.262-45.083,0,0-46.763-17.8-80.844,20.658-26.867,30.315-21.583,69.973-21.583,69.973s44.363,16.538,79.793-8.623C245.647,626.666,240.784,583.634,240.784,583.634Z" transform="translate(-94.443 -381.019)"/><path class="cls-1" d="M225.136,545.067s-41.3-7.306-58.956-22.4c0,0,30.652-3.672,62.79,7,0,0-14.859-47.777-66.15-50.86-40.434-2.43-68.377,26.2-68.377,26.2s14.367,45.113,56.031,57.462C194.279,575.452,225.136,545.067,225.136,545.067Z" transform="translate(-94.443 -381.019)"/><path class="cls-1" d="M246.449,508.6s-19.726-37.016-18.73-60.225c0,0,21.8,21.862,33.217,53.742,0,0,28.442-41.166-.769-83.438-23.028-33.326-62.8-37.659-62.8-37.659S170.72,420.154,186.7,460.565C203.5,503.053,246.449,508.6,246.449,508.6Z" transform="translate(-94.443 -381.019)"/><path class="cls-1" d="M287.477,502.9s16.8-38.432,35.623-52.047c0,0-3.629,30.658-21.551,59.39,0,0,49.931-3.224,64.971-52.357,11.857-38.733-9.414-72.618-9.414-72.618s-47.225,3.372-69.012,40.971C265.187,465.77,287.477,502.9,287.477,502.9Z" transform="translate(-94.443 -381.019)"/><path class="cls-1" d="M394.221,544.1c-.088-1.933.091-14.081,0-18.212-.072-3.286-1.252-4.755-4.558-4.755h-.058c-11.329.06-22.85.061-33.993.062q-9.557,0-19.1.012c-.069,0-.14-.017-.215-.028a3.014,3.014,0,0,0-3.377,1.542l-.925,1.71,1.815.694c3.326,1.273,4.678,3.725,4.666,8.465,0,.526,0,1.052,0,1.578l.008,18.12q0,24.254-.008,48.509c0,.548.008,1.1.016,1.654.071,5.106.129,9.139-5.458,11.61l-7.381,3.266h41.492l-6.25-3.221a7.651,7.651,0,0,1-4.567-7.33c-.051-6.666-.055-13.334-.06-20q0-7.266-.027-14.53c0-.054,0-.1,0-.144.027,0,.055,0,.085,0,2.283.043,4.567.055,6.851.067,2.7.014,5.491.028,8.227.1,3.331.086,4.967,1.449,6.859,4.961l5.173,9.379V550.129s-4.279,9.5-5.519,11.83c-1.527,2.868-3,4.606-5.916,4.7-3.359.111-6.788.136-10.1.16-1.881.013-3.762.027-5.642.056,0-.045,0-.094,0-.149v-1.375c.012-12.393.015-25.036-.031-37.642a.285.285,0,0,1,.073-.224.693.693,0,0,1,.278-.034c5.27.1,10.551-.006,15.7,0,7.463.009,14.037,1.318,18.338,11.793,2,4.873,3.61,9.513,3.61,9.513Z" transform="translate(-94.443 -381.019)"/><path class="cls-1" d="M563.086,522.793l-.261-1.389H540.18l2.91,2.911c2.454,2.456,2.751,3.3.323,6.621-5.393,7.38-11.447,14.006-17.857,21.021-2.313,2.532-4.693,5.136-7.044,7.785l-7.988-9.973q-7.423-9.264-14.836-18.542a16.53,16.53,0,0,1-2.4-4.057c-.333-.816-.13-1.224,1.36-2.725l3.066-3.106h-38.9l6.872,3.247c5.009,2.368,7.858,5.943,10.885,9.741q5.067,6.359,10.124,12.727,8.033,10.107,16.092,20.2a4.578,4.578,0,0,1,1.08,3.147c-.051,10.506-.057,21.524-.017,33.687.017,5.442-.242,8.878-5.535,10.87l-8.77,3.3h44.744l-7.816-3.278c-4.105-1.722-4.9-4.887-4.9-9.774.016-12.275.033-24.969-.028-37.457a4.354,4.354,0,0,1,1.2-3.276q4.509-4.985,8.969-10.012c4.534-5.085,9.223-10.343,13.914-15.434,4.114-4.466,9.16-9.541,15.317-13.286.054-.023.114-.039.175-.059C563.18,525.023,563.237,523.589,563.086,522.793Z" transform="translate(-94.443 -381.019)"/><path class="cls-1" d="M949.738,615.152l-5.794,3.2h39.913l-5.132-3.157c-6.407-3.943-8.78-10.183-11.073-16.216-10.318-27.135-20.382-53.778-28-73.958-.625-1.654-1.481-3.919-4.891-3.933h-.03c-3.36,0-4.2,2.233-4.846,3.945q-7.65,20.264-15.331,40.517-5.872,15.5-11.738,31.006l-.111.293c-2.525,6.686-4.826,13.051-11.4,17.6-2.5,1.731-6.274,3.851-6.274,3.851h4.212l-.016-.008H914.1l-5.115-3.156c-3.516-2.169-4.259-4.818-2.655-9.448,1.327-3.828,2.77-7.7,4.167-11.439.941-2.522,1.882-5.045,2.8-7.576.2-.546.225-.537.729-.544q14.661.038,29.321,0h.024c.634,0,.645.029.79.431,1.207,3.317,2.444,6.624,3.68,9.93,1.411,3.772,2.869,7.672,4.254,11.52C953.356,611.52,952.7,613.52,949.738,615.152Zm-19.753-35.079c-4.928,0-9.759.009-14.262.018q5.1-13.285,10.123-26.6l2.951-7.781,1.546,4.083c2.407,6.358,4.793,12.66,7.172,18.965.49,1.3.969,2.6,1.447,3.9.9,2.442,1.83,4.968,2.821,7.435C937.862,580.079,933.894,580.073,929.985,580.073Z" transform="translate(-94.443 -381.019)"/><path class="cls-1" d="M847.823,615.043l-6.8,3.255h40.39L874.9,615.07c-3.281-1.657-4.621-4.279-4.625-9.055q-.031-35.537-.054-71.069c0-5.331.759-8.55,4.786-10.294l7.554-3.27H841.907l5.815,3.2c3.188,1.755,4.676,4.124,4.681,7.453q.02,15.1.025,30.2.014,21.456.047,42.911C852.485,610.174,851.748,613.243,847.823,615.043Z" transform="translate(-94.443 -381.019)"/><path class="cls-1" d="M733.538,521.178,722.7,521.2h0c-.142,0-.289-.012-.436-.022a4.333,4.333,0,0,0-2.965.621l-1.732,1.186,1.516,1.452c2.409,2.307,2.482,2.779.88,5.616a19.262,19.262,0,0,1-1.637,2.428c-5.513,7.012-11.621,13.744-17.527,20.252q-3.171,3.495-6.321,7.007-4.921-6.2-9.852-12.393-7.075-8.892-14.136-17.8a6.085,6.085,0,0,1-1.346-3.1c-.034-.27.049-.429.725-1.106a7.158,7.158,0,0,0,1.091-1.291l1.607-2.6H638.5l3.455,2.142c4.458,2.8,6.857,6.114,9.442,9.355q5.5,6.9,10.99,13.809,8.334,10.476,16.68,20.94a3.41,3.41,0,0,1,.864,2.348q-.049,10.3-.044,20.608-.007,6.4-.018,12.794v.611c0,4.9,0,8.763-5.423,10.863l-8.5,3.3h43.675l-7.309-3.263c-3.33-1.487-4.685-4.036-4.676-8.8.023-12.658-.008-25.854-.094-39.219a3.29,3.29,0,0,1,1.119-2.418q4.812-5.352,9.6-10.721,6.036-6.749,12.091-13.483c4.658-5.163,11.533-13.3,16.557-16.253a33.575,33.575,0,0,1,5.36-2.908S735.986,521.173,733.538,521.178Z" transform="translate(-94.443 -381.019)"/><path class="cls-1" d="M889.152,630.445l-.15-.088a1.874,1.874,0,0,0-1.654-.242c-.472.166-.942.339-1.412.511-.43.159-.861.317-1.294.47-19.507,6.878-37.791,3.56-52.3-8.777-1.425-1.212-4.294-4.1-4.294-4.1-5.839-6.256-9.666-13.684-12.98-20.39-4.893-9.9-12.223-16.986-21.791-21.066a40.767,40.767,0,0,0,13.978-6.616c7.977-5.927,12.607-15.973,11.52-25-.719-5.966-4.183-14.177-16.607-19.42-7.123-3.006-14.984-4.441-24.738-4.516-9.48-.073-21.585-.072-32.9-.056a16.086,16.086,0,0,1,6.122,7.989,10.12,10.12,0,0,1,.491,2.92q.033,17.76.038,35.523.014,19.409.044,38.817c.009,4.561-1.328,7.038-4.613,8.551l-7.068,3.255h40.279l-6.1-3.215a7.752,7.752,0,0,1-4.57-7.2c-.1-6.96-.129-14.04-.159-20.889q-.018-4.287-.042-8.578c5.44-.225,10.255,0,14.1,4.043a73.6,73.6,0,0,1,10.13,13.975c1.252,2.147,2.478,4.368,3.664,6.515a156.47,156.47,0,0,0,8.3,13.863C812.9,627.875,823.007,635,832.98,638a69.228,69.228,0,0,0,21.88,3.187,63.259,63.259,0,0,0,9.807-.871,71.169,71.169,0,0,0,22.868-7.744l2.577-1.551ZM778.425,572.094c-1.4.047-2.841.033-4.237.017-1.559-.014-3.172-.033-4.778.035a2.937,2.937,0,0,1-.463-.009,3.846,3.846,0,0,1-.033-.625c.056-5.088.047-10.256.038-15.254l-.007-5.674,0-5.32c0-5.1,0-10.2-.009-15.409,0-.333,0-.836.009-.914a1.044,1.044,0,0,1,.359-.128c7.137-1.653,12.974-1.723,18.371-.223,5.357,1.491,9.1,5.216,11.116,11.074a29.52,29.52,0,0,1,.943,16.24C797.505,565.949,789.936,571.7,778.425,572.094Z" transform="translate(-94.443 -381.019)"/><path class="cls-1" d="M617.316,568.571c-3.772-2.534-7.647-5.039-11.395-7.461-3.36-2.172-6.834-4.418-10.215-6.672a41.409,41.409,0,0,1-10.4-9.187c-2.612-3.457-3.5-7.011-2.5-10.006.971-2.916,3.712-5.159,7.717-6.316,13.675-3.945,23.844,1.6,32.688,12.811,2.422,3.07,8.4,12.491,8.4,12.491V521.3s-2.421,3.318-3.659,5.076c-.573.813-2.031,3.176-2.9,3.407-.838.23-2.98-1.2-3.786-1.734-13.994-9.314-28.688-9.718-43.68-1.2-5.788,3.287-9.515,8.228-10.5,13.914-1.021,5.92.965,12.132,5.6,17.492a60.5,60.5,0,0,0,12.207,10.454c3.462,2.344,7.013,4.669,10.447,6.917,3.723,2.437,7.573,4.958,11.306,7.5,4.331,2.949,8.724,6.328,11.523,11.047a11.014,11.014,0,0,1-4.5,15.921,19.848,19.848,0,0,1-11.44,1.956c-8.469-.825-15.424-4.847-21.707-11.895a54.06,54.06,0,0,1-8.087-11.518l-3.864-7.315.009,37.821,3.212-6.071c1.287-2.432,2.5-4.729,3.1-4.891.558-.148,2.592,1.105,4.747,2.437l.227.14c13.037,8.053,26.406,9.832,39.739,5.287a22.788,22.788,0,0,0,10.042-36.763A66.053,66.053,0,0,0,617.316,568.571Z" transform="translate(-94.443 -381.019)"/><path class="cls-1" d="M466.257,602.712c-3.445,5.633-7.326,8.775-14.253,9.324a133.27,133.27,0,0,1-14.312.149,3.553,3.553,0,0,1-3.565-3.011,18.6,18.6,0,0,1-.609-4.175c-.042-21.8-.052-44.965-.03-70.808,0-4.347.793-7.566,4.644-9.153a1.819,1.819,0,0,0,1.056-2.05v-1.705H404.215l6.8,3.244c3.275,1.564,4.654,4.087,4.757,8.711l.011.447c.014.612.03,1.223.03,1.835v9.526q0,29.772-.019,59.543c0,1.378-.132,2.755-.271,4.213l-.051.543a5.533,5.533,0,0,1-2.776,4.4,2.746,2.746,0,0,1-.348.171,4.006,4.006,0,0,0-2.293,2.157l-.973,2.356,59.677,0,.381.007c.108,0,.233.006.37.006,1.158,0,3.792-.563,3.792-3.258v-29.84S470.764,595.342,466.257,602.712Z" transform="translate(-94.443 -381.019)"/></svg>