<?xml version="1.0" encoding="UTF-8"?>
<svg id="Layer_1" xmlns="http://www.w3.org/2000/svg" version="1.1" viewBox="0 0 1080 1080">
  <!-- Generator: Adobe Illustrator 29.2.1, SVG Export Plug-In . SVG Version: 2.1.0 Build 116)  -->
  <defs>
    <style>
      .st0 {
        fill: #135620;
      }

      .st1 {
        fill: none;
      }
    </style>
  </defs>
  <g>
    <path class="st0" d="M494.27,612.35c-17.44,49.28-51.13,112.03-107.27,121.64l-9.64-26.27c13.93-.47,27.87-1.06,41.77-1.75-14.34-.72-28.68-1.31-43.05-1.82l-4.92-13.37c20.91-.63,41.83-1.44,62.68-2.47-21.48-1.06-42.99-1.91-64.53-2.54l-6.36-17.31c26.86-.63,53.73-1.63,80.53-2.94-27.52-1.35-55.11-2.35-82.69-2.97l-7.55-20.63c36.13-.5,72.2-1.66,108.18-3.44-36.82-1.82-73.77-3.01-110.74-3.51l-6.92-18.85c42.99-.41,85.98-1.63,128.9-3.57-43.8-1.97-87.67-3.22-131.53-3.6l-7.61-20.73c50.41.22,100.85-1.38,150.85-4.73-51.16-3.41-102.76-5.01-154.29-4.73l-5.82-15.87c56.2.34,112.4-1.6,168.48-5.32-57.36-3.82-114.88-5.73-172.39-5.32l-5.67-15.4c61.21.63,122.45-1.28,183.54-5.2-62.34-3.98-124.83-5.89-187.29-5.1l-5.98-16.31c66.63-.03,133.25-1.57,199.6-4.51-67.47-2.97-135.2-4.51-202.92-4.51l-113.37-309.15c28.87-4.26,56.39-2.35,82.97,0,36.26,3.19,91.39,21.92,123.74,39.07,56.98,30.25,90.83,83.28,131.34,131.63.69,82.22-4.41,171.61-32.03,249.6v-.02Z"/>
    <path class="st0" d="M858.28,752.49h-114.28c-11.24,0-40.8-8.83-52.51-13.28-130.72-49.72-157.46-238.3-147.88-359.34l186.64,221.02c-48.97.59-97.87,2-146.65,4.16,51.13,2.25,102.45,3.69,153.76,4.26l13.87,16.41c-51.44.13-102.85,2-154.17,5.26,54.29,3.48,108.71,5.35,163.09,5.32l12.87,15.22c-51.69.06-103.38,1.97-154.95,5.39,54.6,3.63,109.33,5.57,164.03,5.39l13.4,15.87c-54.39-.53-108.8,1.06-162.78,4.67,56.55,3.79,113.62,5.35,170.58,4.57l17.5,20.73c-53.98,0-107.99,1.31-161.93,3.76,56.08,2.54,112.18,3.85,168.26,3.73l15.53,18.38c-48.19.16-96.34,1.47-144.34,3.82,50.13,2.47,100.44,3.76,150.79,3.82l9.17,10.86v-.02Z"/>
    <path class="st0" d="M900.49,799.49l-9.14-3.35c-75.8,4.63-159.43-8.74-233.48,7.98-35.54,8.02-69.41,26.77-84.5,61.09h381.98l-54.85-65.72h-.01ZM848.95,811.79c-56.73,4.07-113.75,3.95-170.51,0,56.76-3.95,113.78-4.07,170.51,0ZM617.85,857.38c70.17-5.04,140.67-5.64,210.81,0-70.13,5.64-140.64,5.04-210.81,0ZM640.46,834.59c72.51-4.38,145.31-4.95,217.82,0-72.51,4.95-145.31,4.41-217.82,0Z"/>
    <path class="st0" d="M409.02,799.39l6.51,21.1c13.87-1.91,28.08-1.32,41.77,1.57-13.34,2.85-27.18,3.44-40.73,1.72l4.54,14.72c16-3.38,32.66-3.13,48.62.44-15.87,3.54-32.44,3.82-48.34.5l7.95,25.77h72.01c-18.07-36.51-53.48-57.08-92.33-65.81h0ZM433.85,855.75c16.75-3.26,34.03-3.16,50.75,0-16.72,3.16-34,3.26-50.75,0Z"/>
  </g>
  <line class="st1" x1="416.56" y1="823.78" x2="415.53" y2="820.5"/>
</svg>