<?xml version="1.0" encoding="UTF-8"?>
<svg id="Layer_1" xmlns="http://www.w3.org/2000/svg" version="1.1" viewBox="0 0 1080 1080">
  <!-- Generator: Adobe Illustrator 29.2.1, SVG Export Plug-In . SVG Version: 2.1.0 Build 116)  -->
  <defs>
    <style>
      .st0 {
        fill: #135620;
      }

      .st1 {
        fill: none;
      }
    </style>
  </defs>
  <g>
    <path class="st0" d="M450.52,512.06c2.68,0,4.88.36,6.58,1.08,1.7.72,3.04,1.65,4.03,2.79.98,1.14,1.65,2.45,2.01,3.95.36,1.5.54,3.02.54,4.57v13.16h-4.65c0-6.71-1.68-11.48-5.03-14.33-3.36-2.84-8.13-4.26-14.33-4.26h-21.53v39.49h34.07v6.97h-34.07v48.78h-20.13v-82.08c0-4.65-.65-8.39-1.94-11.23-1.29-2.84-4.26-4.26-8.9-4.26h-1.55v-4.65h64.89Z"/>
    <path class="st0" d="M479.48,532.19c0-4.65-.65-8.39-1.94-11.23-1.29-2.84-4.26-4.26-8.9-4.26h-1.55v-4.65h18.58c2.68,0,4.93.34,6.74,1.01,1.81.67,3.25,1.78,4.34,3.33s1.83,3.62,2.25,6.19c.41,2.58.62,5.78.62,9.6v82.08h-20.13v-82.08Z"/>
    <path class="st0" d="M554.43,624.34c-1.55,4.23-3.2,7.69-4.96,10.38-1.76,2.68-3.62,4.8-5.58,6.35-1.96,1.55-4.1,2.63-6.43,3.25-2.32.62-4.83.93-7.51.93h-6.19v-5.42c2.68,0,5.14-.23,7.36-.7,2.22-.46,4.26-1.27,6.12-2.4,1.86-1.14,3.51-2.66,4.96-4.57,1.44-1.91,2.73-4.36,3.87-7.36l3.25-8.36-27.88-61.02c-3.41-7.53-8.21-11.67-14.4-12.39v-3.1h13.63c4.65,0,8.72,1.11,12.23,3.33,3.51,2.22,6.14,5.24,7.9,9.06l17.81,39.03,18.89-49.87h8.21l-31.28,82.85Z"/>
    <path class="st0" d="M630.63,616.91c-4.23,0-8.44-.41-12.62-1.24-4.18-.83-7.92-2.04-11.23-3.64-3.31-1.6-5.99-3.56-8.05-5.89-2.07-2.32-3.1-4.93-3.1-7.82v-18.12h4.65c1.64,10.74,4.95,18.38,9.93,22.92,4.97,4.54,11.77,6.81,20.39,6.81,5.85,0,10.54-1.26,14.08-3.8,3.54-2.53,5.31-6.27,5.31-11.23,0-4.44-1.42-8.13-4.26-11.07-2.84-2.94-6.74-5.91-11.69-8.9l-19.05-11.46c-7.02-4.13-11.98-8.36-14.87-12.7-2.89-4.34-4.34-9.34-4.34-15.02,0-8.15,3.12-14.61,9.37-19.36,6.25-4.75,14.69-7.12,25.32-7.12,4.23,0,8.44.41,12.62,1.24,4.18.83,7.92,2.04,11.23,3.64,3.3,1.6,5.99,3.56,8.05,5.88,2.06,2.32,3.1,4.93,3.1,7.82v18.12h-4.65c-1.74-10.74-5.03-18.38-9.85-22.92-4.82-4.54-11.13-6.81-18.92-6.81-5.54,0-9.93,1.34-13.16,4.03-3.23,2.69-4.84,6.35-4.84,11,0,2.17.39,4.1,1.16,5.81.77,1.7,1.86,3.28,3.25,4.72,1.39,1.45,3.07,2.84,5.03,4.18,1.96,1.34,4.18,2.74,6.66,4.18l19.05,11.31c7.02,4.13,12.16,8.18,15.41,12.16,3.25,3.98,4.88,8.8,4.88,14.48,0,8.88-3.36,15.9-10.07,21.06-6.71,5.16-16.31,7.74-28.81,7.74Z"/>
    <path class="st0" d="M720.14,624.34c-1.55,4.23-3.2,7.69-4.96,10.38-1.76,2.68-3.62,4.8-5.58,6.35-1.96,1.55-4.1,2.63-6.43,3.25-2.32.62-4.83.93-7.51.93h-6.19v-5.42c2.68,0,5.14-.23,7.36-.7,2.22-.46,4.26-1.27,6.12-2.4,1.86-1.14,3.51-2.66,4.96-4.57,1.44-1.91,2.73-4.36,3.87-7.36l3.25-8.36-27.88-61.02c-3.41-7.53-8.21-11.67-14.4-12.39v-3.1h13.63c4.65,0,8.72,1.11,12.23,3.33,3.51,2.22,6.14,5.24,7.9,9.06l17.81,39.03,18.89-49.87h8.21l-31.28,82.85Z"/>
    <path class="st0" d="M802.06,539.93c4.54,0,8.21,1.03,11,3.1.93.62,1.7,1.34,2.32,2.17.62.83,1.16,1.6,1.63,2.32.46.72.9,1.55,1.32,2.48l-7.9,6.04c-.72-1.03-1.65-2.01-2.79-2.94-.93-.83-2.04-1.55-3.33-2.17-1.29-.62-2.81-.93-4.57-.93-3.31,0-6.09.46-8.36,1.39-2.27.93-4.08,2.07-5.42,3.41.1.72.21,1.5.31,2.32.1.72.18,1.52.23,2.4.05.88.08,1.78.08,2.71v52.04h-20.13v-52.66c0-2.27-.13-4.36-.39-6.27-.26-1.91-.75-3.56-1.47-4.96-.72-1.39-1.81-2.45-3.25-3.18-1.45-.72-3.31-1.08-5.58-1.08h-1.55v-4.65h15.33c3.51,0,6.27.44,8.29,1.32,2.01.88,3.59,2.35,4.72,4.41,1.86-1.65,4.41-3.28,7.67-4.88,3.25-1.6,7.2-2.4,11.85-2.4Z"/>
    <path class="st0" d="M831.02,561.62c0-4.65-.65-8.39-1.94-11.23-1.29-2.84-4.26-4.26-8.9-4.26h-1.55v-4.65h18.58c2.68,0,4.93.34,6.74,1.01,1.81.67,3.25,1.78,4.34,3.33s1.83,3.62,2.25,6.19c.41,2.58.62,5.78.62,9.6v52.66h-20.13v-52.66ZM849.61,524.45c0,2.69-.83,4.8-2.48,6.35-1.65,1.55-3.67,2.32-6.04,2.32-3.93,0-6.84-1.19-8.75-3.56-1.91-2.37-2.87-5.11-2.87-8.21,0-2.68.83-4.8,2.48-6.35,1.65-1.55,3.66-2.32,6.04-2.32,3.92,0,6.84,1.19,8.75,3.56,1.91,2.38,2.87,5.11,2.87,8.21Z"/>
    <path class="st0" d="M897.15,539.93c10.12,0,17.94,2.69,23.46,8.05,5.52,5.37,8.29,13.53,8.29,24.47v41.81h-13.16l-5.42-6.97h-.77c-1.14,1.65-2.58,3.1-4.34,4.34-1.45,1.14-3.36,2.12-5.73,2.94-2.38.83-5.21,1.24-8.52,1.24-8.57,0-15.1-1.94-19.59-5.81-4.49-3.87-6.74-8.9-6.74-15.1,0-3.72.62-6.99,1.86-9.83,1.24-2.84,3.43-5.27,6.58-7.28,3.15-2.01,7.41-3.54,12.78-4.57,5.37-1.03,12.23-1.55,20.6-1.55h2.32c0-9.29-1.29-15.74-3.87-19.36-2.58-3.61-6.19-5.42-10.84-5.42-1.76,0-3.43.18-5.03.54-1.6.36-3.07,1.06-4.41,2.09-1.34,1.03-2.53,2.45-3.56,4.26-1.03,1.81-1.86,4.16-2.48,7.05h-8.52c0-2.68.18-5.42.54-8.21.36-2.79,1.47-5.21,3.33-7.28,1.86-2.06,4.93-3.48,9.21-4.26,4.28-.77,8.96-1.16,14.02-1.16ZM908.77,578.65h-2.32c-7.43,0-12.78,1.36-16.03,4.07-3.25,2.71-4.88,6.83-4.88,12.36,0,4.38.9,7.69,2.71,9.94,1.81,2.24,4.26,3.36,7.36,3.36,2.37,0,4.36-.52,5.96-1.56,1.6-1.04,2.97-2.19,4.1-3.45,1.24-1.46,2.27-3.18,3.1-5.16v-19.56Z"/>
  </g>
  <g>
    <path class="st0" d="M235.02,550.71c-4.78,13.51-14.02,30.72-29.42,33.36l-2.64-7.2c3.82-.13,7.64-.29,11.45-.48-3.93-.2-7.87-.36-11.81-.5l-1.35-3.67c5.74-.17,11.47-.39,17.19-.68-5.89-.29-11.79-.52-17.7-.7l-1.74-4.75c7.37-.17,14.73-.45,22.08-.81-7.55-.37-15.11-.64-22.68-.82l-2.07-5.66c9.91-.14,19.8-.46,29.67-.94-10.1-.5-20.23-.82-30.37-.96l-1.9-5.17c11.79-.11,23.58-.45,35.35-.98-12.01-.54-24.04-.88-36.07-.99l-2.09-5.68c13.82.06,27.66-.38,41.37-1.3-14.03-.94-28.18-1.37-42.31-1.3l-1.6-4.35c15.41.09,30.82-.44,46.2-1.46-15.73-1.05-31.5-1.57-47.28-1.46l-1.55-4.22c16.79.17,33.58-.35,50.33-1.43-17.1-1.09-34.23-1.61-51.36-1.4l-1.64-4.47c18.27,0,36.54-.43,54.74-1.24-18.5-.82-37.08-1.24-55.65-1.24l-31.09-84.78c7.92-1.17,15.46-.64,22.75,0,9.94.88,25.06,6.01,33.93,10.72,15.63,8.29,24.91,22.84,36.02,36.1.19,22.55-1.21,47.06-8.78,68.45Z"/>
    <path class="st0" d="M334.85,589.14h-31.34c-3.08,0-11.19-2.42-14.4-3.64-35.85-13.64-43.18-65.35-40.55-98.55l51.18,60.61c-13.43.16-26.84.55-40.22,1.14,14.02.62,28.09,1.01,42.17,1.17l3.8,4.5c-14.11.03-28.21.55-42.28,1.44,14.89.95,29.81,1.47,44.73,1.46l3.53,4.17c-14.18.02-28.35.54-42.49,1.48,14.97,1,29.98,1.53,44.98,1.48l3.67,4.35c-14.91-.15-29.84.29-44.64,1.28,15.51,1.04,31.16,1.47,46.78,1.25l4.8,5.68c-14.8,0-29.61.36-44.41,1.03,15.38.7,30.76,1.06,46.14,1.02l4.26,5.04c-13.21.04-26.42.4-39.58,1.05,13.75.68,27.54,1.03,41.35,1.05l2.52,2.98Z"/>
    <path class="st0" d="M346.42,602.03l-2.51-.92c-20.79,1.27-43.72-2.4-64.03,2.19-9.75,2.2-19.04,7.34-23.17,16.75h104.75l-15.04-18.02ZM332.29,605.4c-15.56,1.12-31.19,1.08-46.76,0,15.57-1.08,31.2-1.12,46.76,0ZM268.91,617.91c19.24-1.38,38.58-1.55,57.81,0-19.23,1.55-38.57,1.38-57.81,0ZM275.11,611.66c19.89-1.2,39.85-1.36,59.73,0-19.89,1.36-39.85,1.21-59.73,0Z"/>
    <path class="st0" d="M211.64,602l1.79,5.79c3.8-.52,7.7-.36,11.45.43-3.66.78-7.45.94-11.17.47l1.25,4.04c4.39-.93,8.96-.86,13.33.12-4.35.97-8.9,1.05-13.26.14l2.18,7.07h19.75c-4.95-10.01-14.67-15.65-25.32-18.05ZM218.45,617.46c4.59-.89,9.33-.87,13.92,0-4.59.87-9.32.89-13.92,0Z"/>
  </g>
  <line class="st1" x1="213.71" y1="608.69" x2="213.43" y2="607.79"/>
</svg>