<?xml version="1.0" encoding="UTF-8"?>
<svg version="1.1" xmlns="http://www.w3.org/2000/svg" width="504" height="301">
<path d="M0 0 C-1 2 -1 2 -2.8984375 2.82543945 C-5.59141633 3.68212742 -8.29099063 4.5078619 -11 5.3125 C-11.92167969 5.61478516 -12.84335937 5.91707031 -13.79296875 6.22851562 C-20.53024157 8.22879197 -24.67711945 8.00692844 -31 5 C-31.70511719 4.67459229 -32.41023437 4.34918457 -33.13671875 4.01391602 C-35.44090479 2.91534258 -37.71896356 1.77080691 -40 0.625 C-79.28895015 -18.4989252 -136.05549292 -44.08866814 -180 -31 C-183.86414382 -29.26434945 -187.04862952 -26.80003725 -189 -23 C-191.12202887 -15.64978407 -189.28808332 -9.70333008 -186 -3 C-180.87893638 6.06404217 -174.20370644 13.58129443 -167 21 C-166.08863281 21.95132813 -165.17726563 22.90265625 -164.23828125 23.8828125 C-158.18255212 30.08539954 -151.8189657 35.65598299 -145 41 C-144.36320313 41.56203125 -143.72640625 42.1240625 -143.0703125 42.703125 C-140.86876289 44.54958596 -138.97947912 45.97718783 -136.03385925 46.04579163 C-130.41597655 45.30560905 -125.02235719 44.1486747 -119.55078125 42.68359375 C-118.62208725 42.43984009 -117.69339325 42.19608643 -116.73655701 41.94494629 C-113.59317959 41.11658682 -110.45278525 40.27750086 -107.3125 39.4375 C-105.64737366 38.99556808 -105.64737366 38.99556808 -103.9486084 38.54470825 C-79.20906742 31.97633461 -54.56906879 25.04877787 -29.92148209 18.14526367 C44.10669744 -2.5886724 44.10669744 -2.5886724 76.1875 -10.1875 C77.31607422 -10.45570557 78.44464844 -10.72391113 79.60742188 -11.00024414 C91.76156871 -13.7863457 103.71012826 -15.37667458 116.1875 -15.3125 C117.35877441 -15.30686035 118.53004883 -15.3012207 119.73681641 -15.29541016 C143.91789913 -14.96080413 172.03760351 -9.44607013 192 5 C192 5.33 192 5.66 192 6 C190.96746094 5.9278125 189.93492187 5.855625 188.87109375 5.78125 C147.31931072 3.06137396 106.3298653 7.95493258 66 18 C64.21553467 18.44013428 64.21553467 18.44013428 62.39501953 18.88916016 C37.73664279 25.06254606 13.49287384 32.67501916 -10.79550171 40.14263916 C-109.71396004 70.55518704 -109.71396004 70.55518704 -153 78 C-154.09248047 78.18900879 -154.09248047 78.18900879 -155.20703125 78.38183594 C-191.82354465 84.56408294 -236.19952525 82.16923099 -268 61 C-269.70825569 59.37598705 -271.38695999 57.71862081 -273 56 C-266.96679996 55.90413982 -260.98683641 56.07067288 -254.96484375 56.4375 C-253.87364731 56.50396729 -253.87364731 56.50396729 -252.76040649 56.57177734 C-249.73558423 56.75880618 -246.71105307 56.94999049 -243.68676758 57.14550781 C-229.07821445 58.08193311 -214.56601827 58.33001036 -199.9375 57.5625 C-199.07962891 57.52318359 -198.22175781 57.48386719 -197.33789062 57.44335938 C-192.18113915 57.1876852 -187.11504123 56.70368775 -182 56 C-182.64437012 55.37134033 -183.28874023 54.74268066 -183.95263672 54.0949707 C-207.97093943 30.58627746 -207.97093943 30.58627746 -215 20 C-215.71929687 18.9171875 -216.43859375 17.834375 -217.1796875 16.71875 C-225.40113432 3.82944876 -232.83374337 -10.62425801 -230.62890625 -26.40625 C-228.56227662 -34.92949268 -224.2720778 -41.13119448 -217 -46 C-157.77579227 -80.39127253 -53.5731276 -30.75205122 0 0 Z " fill="#75359A" transform="translate(293,108)"/>
<path d="M0 0 C2.00418933 1.8690094 3.81019198 3.71144853 5.625 5.75 C6.15134033 6.33346191 6.67768066 6.91692383 7.2199707 7.51806641 C21.96229119 24.0623495 37.49516011 44.15655118 37.21875 67.375 C36.53716575 75.55401102 32.89194059 82.46333629 26.9375 88.0625 C9.20792352 102.4114369 -17.76167639 100.98070638 -39.1484375 98.84765625 C-61.33637368 96.29297539 -82.79217662 90.90146416 -104 84 C-105.05960937 83.66129883 -106.11921875 83.32259766 -107.2109375 82.97363281 C-125.33330104 77.14146631 -142.6729798 69.83109128 -160 62 C-160.9295752 61.58218262 -161.85915039 61.16436523 -162.81689453 60.73388672 C-180.76316215 52.6211904 -197.87407737 42.95812841 -214.8125 32.9375 C-216.46016357 31.97239502 -216.46016357 31.97239502 -218.14111328 30.98779297 C-219.15286621 30.38209473 -220.16461914 29.77639648 -221.20703125 29.15234375 C-222.1091333 28.61601318 -223.01123535 28.07968262 -223.94067383 27.52709961 C-226 26 -226 26 -227 23 C-221.27344379 21.42372977 -215.54427901 19.85746479 -209.8125 18.30029297 C-207.86416472 17.76948819 -205.91656203 17.23598658 -203.96972656 16.69970703 C-201.16661131 15.92806295 -198.36097966 15.16624762 -195.5546875 14.40625 C-194.68883026 14.16563843 -193.82297302 13.92502686 -192.93087769 13.67712402 C-185.05722401 11.56351344 -180.18320485 11.41684095 -172.8828125 15.4453125 C-171.47344938 16.19347376 -170.06402275 16.94151537 -168.65454102 17.68945312 C-167.91712677 18.08656494 -167.17971252 18.48367676 -166.41995239 18.89282227 C-120.91317098 43.32576606 -51.48637994 79.74591398 1 64 C5.39667534 62.09477402 7.97775774 59.36378592 10 55 C12.06297304 49.28715157 10.18384097 43.61651474 7.7734375 38.2890625 C1.65107874 26.60092305 -7.12496951 16.64817224 -16.5625 7.5 C-19 5 -19 5 -19 3 C-16.586238 2.30048937 -14.16989766 1.61516081 -11.75 0.9375 C-11.06808594 0.73833984 -10.38617188 0.53917969 -9.68359375 0.33398438 C-2.92522573 -1.53604949 -2.92522573 -1.53604949 0 0 Z " fill="#74359A" transform="translate(391,179)"/>
<path d="M0 0 C-11.26697138 22.06448562 -36.45600736 34.52695407 -59 42 C-69.82652953 45.29409482 -80.76236132 48.21454423 -91.68884659 51.15586472 C-94.14632063 51.81824672 -96.60288234 52.4839114 -99.05917358 53.15066528 C-194.69910557 79.10909545 -194.69910557 79.10909545 -220.6875 77.8125 C-221.56744629 77.76988037 -222.44739258 77.72726074 -223.35400391 77.68334961 C-236.62388796 76.8857634 -250.28011749 74.95060418 -263 71 C-262 69 -262 69 -259.16664124 68.03436279 C-257.87773385 67.68480657 -256.58633256 67.34437873 -255.29321289 67.01074219 C-254.58410924 66.82095511 -253.87500559 66.63116804 -253.14441395 66.43562984 C-250.75579243 65.79838733 -248.36428223 65.17273901 -245.97265625 64.546875 C-244.27235909 64.09560212 -242.57225948 63.64358435 -240.87234497 63.19087219 C-237.20503532 62.21580812 -233.53644455 61.24577571 -229.86679077 60.27957153 C-224.00254096 58.73541704 -218.14128846 57.18010175 -212.28051758 55.62280273 C-206.20561707 54.00914982 -200.13053228 52.39620961 -194.0544281 50.78709412 C-176.07737549 46.02628456 -158.11277319 41.2199187 -140.15264893 36.39569092 C-136.01109169 35.28336938 -131.86907986 34.17275158 -127.72690392 33.06273651 C-109.27739816 28.11848172 -90.83555345 23.14691667 -72.40266991 18.14102745 C-66.19203245 16.45499438 -59.98056784 14.77200992 -53.76915455 13.08883762 C-47.77452425 11.46386764 -41.78149371 9.83315395 -35.78957939 8.19819927 C-32.08894787 7.18980081 -28.38693137 6.18656418 -24.68452454 5.18470573 C-22.96105147 4.7171491 -21.2381767 4.24738072 -19.51594543 3.77527046 C-17.15758381 3.12905547 -14.79725031 2.49060796 -12.4362793 1.85400391 C-11.40785054 1.56913919 -11.40785054 1.56913919 -10.35864544 1.27851963 C-6.822951 0.33445821 -3.66165689 -0.20847514 0 0 Z " fill="#76379B" transform="translate(486,117)"/>
<path d="M0 0 C0.66 0.33 1.32 0.66 2 1 C-1.63 4.63 -5.26 8.26 -9 12 C-9 8.47601214 -8.44884893 7.98495633 -6.1875 5.4375 C-5.40439453 4.53837891 -5.40439453 4.53837891 -4.60546875 3.62109375 C-3 2 -3 2 0 0 Z " fill="#A278BB" transform="translate(76,62)"/>
</svg>
